<mxfile host="app.diagrams.net" agent="Mozilla/5.0 (Macintosh; Intel Mac OS X 10_15_7) AppleWebKit/537.36 (KHTML, like Gecko) Chrome/137.0.0.0 Safari/537.36 Edg/137.0.0.0" version="27.1.4">
  <diagram name="Seite-1" id="28XVCXPEdS8IixH7V-vw">
    <mxGraphModel dx="1546" dy="875" grid="1" gridSize="10" guides="1" tooltips="1" connect="1" arrows="1" fold="1" page="1" pageScale="1" pageWidth="850" pageHeight="1100" math="0" shadow="0">
      <root>
        <mxCell id="0" />
        <mxCell id="1" parent="0" />
        <mxCell id="mQivXwnT2g9FrmGUxrGe-1" style="edgeStyle=orthogonalEdgeStyle;rounded=0;orthogonalLoop=1;jettySize=auto;html=1;" parent="1" source="mQivXwnT2g9FrmGUxrGe-2" target="mQivXwnT2g9FrmGUxrGe-7" edge="1">
          <mxGeometry relative="1" as="geometry" />
        </mxCell>
        <mxCell id="mQivXwnT2g9FrmGUxrGe-2" value="&lt;font style=&quot;font-size: 15px;&quot;&gt;&lt;b&gt;Sensor&amp;nbsp; Node.&amp;nbsp;&amp;nbsp;&lt;/b&gt;&lt;/font&gt;" style="shape=image;html=1;verticalAlign=top;verticalLabelPosition=bottom;labelBackgroundColor=#ffffff;imageAspect=0;aspect=fixed;image=https://cdn3.iconfinder.com/data/icons/energy-and-power-glyph-24-px/24/Analog_device_gauge_gauge_meter_pressure_gauge_speedometer_1-128.png" parent="1" vertex="1">
          <mxGeometry x="350" y="490" width="80" height="80" as="geometry" />
        </mxCell>
        <mxCell id="mQivXwnT2g9FrmGUxrGe-3" value="&quot;anomaly_detected&quot;" style="sketch=0;outlineConnect=0;fontColor=#232F3E;gradientColor=none;fillColor=#232F3D;strokeColor=none;dashed=0;verticalLabelPosition=bottom;verticalAlign=top;align=center;html=1;fontSize=12;fontStyle=0;aspect=fixed;pointerEvents=1;shape=mxgraph.aws4.alert;" parent="1" vertex="1">
          <mxGeometry x="429" y="440" width="33.92" height="30" as="geometry" />
        </mxCell>
        <mxCell id="mQivXwnT2g9FrmGUxrGe-4" style="edgeStyle=orthogonalEdgeStyle;rounded=0;orthogonalLoop=1;jettySize=auto;html=1;curved=1;entryX=0.5;entryY=1;entryDx=0;entryDy=0;" parent="1" source="mQivXwnT2g9FrmGUxrGe-2" target="mQivXwnT2g9FrmGUxrGe-2" edge="1">
          <mxGeometry relative="1" as="geometry">
            <Array as="points">
              <mxPoint x="550" y="540" />
              <mxPoint x="550" y="630" />
              <mxPoint x="390" y="630" />
            </Array>
          </mxGeometry>
        </mxCell>
        <mxCell id="mQivXwnT2g9FrmGUxrGe-5" value="&lt;font style=&quot;font-size: 13px;&quot;&gt;normal&lt;/font&gt;" style="text;html=1;align=center;verticalAlign=middle;resizable=0;points=[];autosize=1;strokeColor=none;fillColor=none;" parent="1" vertex="1">
          <mxGeometry x="440" y="518" width="60" height="30" as="geometry" />
        </mxCell>
        <mxCell id="mQivXwnT2g9FrmGUxrGe-6" style="edgeStyle=orthogonalEdgeStyle;rounded=0;orthogonalLoop=1;jettySize=auto;html=1;" parent="1" source="mQivXwnT2g9FrmGUxrGe-7" target="mQivXwnT2g9FrmGUxrGe-8" edge="1">
          <mxGeometry relative="1" as="geometry" />
        </mxCell>
        <mxCell id="mQivXwnT2g9FrmGUxrGe-7" value="&lt;h3&gt;&lt;font style=&quot;color: rgb(0, 0, 0); font-size: 15px;&quot;&gt;Edge Controller&lt;/font&gt;&lt;/h3&gt;" style="sketch=0;outlineConnect=0;dashed=0;verticalLabelPosition=bottom;verticalAlign=top;align=center;html=1;fontSize=12;fontStyle=0;aspect=fixed;pointerEvents=1;shape=mxgraph.aws4.iot_thing_plc;fillColor=light-dark(#000000, #198cc4);fontColor=#ffffff;strokeColor=#006EAF;" parent="1" vertex="1">
          <mxGeometry x="351" y="310" width="78" height="78" as="geometry" />
        </mxCell>
        <mxCell id="mQivXwnT2g9FrmGUxrGe-8" value="&lt;font style=&quot;font-size: 15px;&quot;&gt;&lt;b style=&quot;&quot;&gt;Business System&lt;/b&gt;&lt;/font&gt;&lt;div&gt;&lt;font style=&quot;font-size: 15px;&quot;&gt;&lt;b style=&quot;&quot;&gt;/ Cloud&lt;/b&gt;&lt;/font&gt;&lt;/div&gt;" style="ellipse;shape=cloud;whiteSpace=wrap;html=1;" parent="1" vertex="1">
          <mxGeometry x="310" y="150" width="160" height="100" as="geometry" />
        </mxCell>
        <mxCell id="mQivXwnT2g9FrmGUxrGe-9" value="&lt;ul&gt;&lt;li&gt;Measure Data&lt;/li&gt;&lt;li&gt;Detects Anomaly&lt;/li&gt;&lt;/ul&gt;" style="text;html=1;align=left;verticalAlign=middle;resizable=0;points=[];autosize=1;strokeColor=none;fillColor=none;" parent="1" vertex="1">
          <mxGeometry x="205" y="500" width="150" height="70" as="geometry" />
        </mxCell>
        <mxCell id="mQivXwnT2g9FrmGUxrGe-10" value="&lt;ul&gt;&lt;li&gt;&lt;span style=&quot;background-color: transparent; color: light-dark(rgb(0, 0, 0), rgb(255, 255, 255));&quot;&gt;Collects events&lt;/span&gt;&lt;/li&gt;&lt;li&gt;&lt;span style=&quot;background-color: transparent; color: light-dark(rgb(0, 0, 0), rgb(255, 255, 255));&quot;&gt;Validates Anomaly&lt;/span&gt;&lt;/li&gt;&lt;li&gt;&lt;span style=&quot;background-color: transparent; color: light-dark(rgb(0, 0, 0), rgb(255, 255, 255));&quot;&gt;Resets event buffer&lt;/span&gt;&lt;/li&gt;&lt;/ul&gt;" style="text;html=1;align=left;verticalAlign=middle;resizable=0;points=[];autosize=1;strokeColor=none;fillColor=none;" parent="1" vertex="1">
          <mxGeometry x="195" y="309" width="170" height="80" as="geometry" />
        </mxCell>
        <mxCell id="mQivXwnT2g9FrmGUxrGe-11" value="&lt;font style=&quot;font-size: 13px;&quot;&gt;summary report&lt;/font&gt;" style="edgeLabel;html=1;align=center;verticalAlign=middle;resizable=0;points=[];" parent="1" vertex="1" connectable="0">
          <mxGeometry x="440" y="290" as="geometry" />
        </mxCell>
        <mxCell id="mQivXwnT2g9FrmGUxrGe-12" value="&lt;ul&gt;&lt;li&gt;&lt;span style=&quot;background-color: transparent; color: light-dark(rgb(0, 0, 0), rgb(255, 255, 255));&quot;&gt;Receives report&lt;/span&gt;&lt;/li&gt;&lt;li&gt;Triggers alerts&lt;/li&gt;&lt;/ul&gt;" style="text;html=1;align=left;verticalAlign=middle;resizable=0;points=[];autosize=1;strokeColor=none;fillColor=none;" parent="1" vertex="1">
          <mxGeometry x="195" y="180" width="150" height="70" as="geometry" />
        </mxCell>
        <mxCell id="mQivXwnT2g9FrmGUxrGe-14" value="" style="shape=image;verticalLabelPosition=bottom;labelBackgroundColor=default;verticalAlign=top;aspect=fixed;imageAspect=0;image=data:image/png,iVBORw0KGgoAAAANSUhEUgAAAFYAAAASCAYAAADBnymNAAAAAXNSR0IArs4c6QAAAIRlWElmTU0AKgAAAAgABQESAAMAAAABAAEAAAEaAAUAAAABAAAASgEbAAUAAAABAAAAUgEoAAMAAAABAAIAAIdpAAQAAAABAAAAWgAAAAAAAABIAAAAAQAAAEgAAAABAAOgAQADAAAAAQABAACgAgAEAAAAAQAAAFagAwAEAAAAAQAAABIAAAAAR92dbQAAAAlwSFlzAAALEwAACxMBAJqcGAAAA0JJREFUWAntll1Ik2EUx/e9Ppa6jVRyKUZF0QeB3qSLgi5GIXQldBF0JWFQtEQDI7CLLhOvI4q6CqGoi8iKWnUXaVmxoEUtGk2ZurlJ0D7c+p3lC1PGu2mDEN4Hzs5zznPO/znP//l4p9NpTWNAY0BjQGNAY2CVMaAvVW8kEqm3WCwnDQaDfX5+/rHdbvdNT083mM3mU+TmkM/4HzocjvhSrGg02m40Gj2KX/JNJlNbIBAYam1tTSv+cnQikehdSZ6CHY/HzzD/7WJ1KjGV1AY1sKmpqU1Wq/WlXq9vzOVymyF3cHZ2thu9Bd8xcr8iHZD3IhQKrQ0Gg2t8Pp9J+oJL3AR5H4jtFZ3NZqO4szI2MDBgEHy/328Rmw20SS6+DYotWsZHR0fNdMvKkxyZPxaLNbEZPWJLo4Zuaqj6a+l0yjzDw8NGpQZlrBJa9cSyy5cpJgVBJ9CPmDBHgZ5MJtMNmf3V1dVHpAjiXkNaHz4vZhuxZxm7I2PSGJ/DzhPGYn+OjIw0ejweP0MhZHsqldrNBn6jLxshiz/FPH30r9M/h75EDTfLySO+TnLRu8gbZN48ucz7KZ1Oe5xOp8ypw56sqqqq56B0Er+fuPPir1QzlQDayPgPCnzLNRqigBbIO7w0B38YqSPOgByvqal5vjSm0Ha73Vbsd8SOQ9geMJuxU2zYAexO5BAb1YWWG+Fj0U8gQldOHpgN5FwlfydabkipJrdW9eaWAig2rgpIkc8grB1Zz+IfIEfxTRQC8d7uwHYjb8RP7JxoTulW0cWazWbbh19wP4L3C52/Obx/Cbq/IcWIv3Eh1yHPhvTLyZN8Qm+gmzihtxYwiip5AohzFh38R6cqsZy8u+CPIduQJItt5lR1yZwUdBDyvvNhu4e/h9ig+KWFw+F1qPczMzOuvKPgh1jBiZBvxH0FcUJkRvwFYfI+X8Pfgt/v9XpPl5tHXH5DwN/LB1aeJqVl+HC+ouYvXP9+nPddLleAuIv0VZ9EBaDiWk7MwgdkOdiqxcpHQ2Q5gBJbKg/ixiDuAk9HLzKuhr+CNanBLRpTXfyiyFViQKr8Y+mg3FgymXxaW1s7uUpK18rUGNAY0BjQGNAY+L8M/AHofspo2U1DlAAAAABJRU5ErkJggg==;" parent="1" vertex="1">
          <mxGeometry x="397.00000000000006" y="389" width="86" height="18" as="geometry" />
        </mxCell>
        <mxCell id="mQivXwnT2g9FrmGUxrGe-15" value="" style="ellipse;shape=cloud;whiteSpace=wrap;html=1;fillColor=none;" parent="1" vertex="1">
          <mxGeometry x="290" y="80" width="720" height="440" as="geometry" />
        </mxCell>
        <mxCell id="mQivXwnT2g9FrmGUxrGe-16" value="" style="ellipse;whiteSpace=wrap;html=1;aspect=fixed;" parent="1" vertex="1">
          <mxGeometry x="559.5" y="234.75" width="230.5" height="230.5" as="geometry" />
        </mxCell>
        <mxCell id="mQivXwnT2g9FrmGUxrGe-17" style="edgeStyle=orthogonalEdgeStyle;rounded=0;orthogonalLoop=1;jettySize=auto;html=1;entryX=1;entryY=0;entryDx=0;entryDy=0;curved=1;startArrow=classic;startFill=0;endArrow=none;" parent="1" source="mQivXwnT2g9FrmGUxrGe-18" target="mQivXwnT2g9FrmGUxrGe-20" edge="1">
          <mxGeometry relative="1" as="geometry">
            <Array as="points">
              <mxPoint x="665" y="410" />
              <mxPoint x="636" y="410" />
            </Array>
          </mxGeometry>
        </mxCell>
        <mxCell id="mQivXwnT2g9FrmGUxrGe-18" value="" style="ellipse;html=1;shape=endState;fillColor=#d5e8d4;strokeColor=#82b366;" parent="1" vertex="1">
          <mxGeometry x="650" y="450" width="30" height="30" as="geometry" />
        </mxCell>
        <mxCell id="mQivXwnT2g9FrmGUxrGe-19" style="edgeStyle=orthogonalEdgeStyle;rounded=0;orthogonalLoop=1;jettySize=auto;html=1;entryX=1;entryY=0.5;entryDx=0;entryDy=0;exitX=0.5;exitY=0;exitDx=0;exitDy=0;curved=1;" parent="1" source="mQivXwnT2g9FrmGUxrGe-20" target="mQivXwnT2g9FrmGUxrGe-25" edge="1">
          <mxGeometry relative="1" as="geometry" />
        </mxCell>
        <mxCell id="mQivXwnT2g9FrmGUxrGe-20" value="" style="ellipse;html=1;shape=endState;fillColor=strokeColor;" parent="1" vertex="1">
          <mxGeometry x="610" y="435.25" width="30" height="30" as="geometry" />
        </mxCell>
        <mxCell id="mQivXwnT2g9FrmGUxrGe-21" style="edgeStyle=orthogonalEdgeStyle;rounded=0;orthogonalLoop=1;jettySize=auto;html=1;entryX=0.5;entryY=1;entryDx=0;entryDy=0;" parent="1" source="mQivXwnT2g9FrmGUxrGe-22" target="mQivXwnT2g9FrmGUxrGe-20" edge="1">
          <mxGeometry relative="1" as="geometry" />
        </mxCell>
        <mxCell id="mQivXwnT2g9FrmGUxrGe-22" value="&lt;h3&gt;&lt;font style=&quot;color: rgb(0, 0, 0); font-size: 15px;&quot;&gt;Edge&amp;nbsp;&lt;/font&gt;&lt;span style=&quot;color: light-dark(rgb(0, 0, 0), rgb(237, 237, 237)); font-size: 15px; background-color: transparent;&quot;&gt;Meter&lt;/span&gt;&lt;/h3&gt;" style="sketch=0;outlineConnect=0;dashed=0;verticalLabelPosition=bottom;verticalAlign=top;align=center;html=1;fontSize=12;fontStyle=0;aspect=fixed;pointerEvents=1;shape=mxgraph.aws4.iot_thing_plc;fillColor=light-dark(#000000, #198cc4);fontColor=#ffffff;strokeColor=#006EAF;" parent="1" vertex="1">
          <mxGeometry x="595" y="520" width="60" height="60" as="geometry" />
        </mxCell>
        <mxCell id="mQivXwnT2g9FrmGUxrGe-23" value="&lt;font style=&quot;font-size: 16px;&quot;&gt;P2P&lt;/font&gt;&lt;div&gt;&lt;font style=&quot;font-size: 16px;&quot;&gt;Network&lt;/font&gt;&lt;/div&gt;" style="text;html=1;align=center;verticalAlign=middle;whiteSpace=wrap;rounded=0;" parent="1" vertex="1">
          <mxGeometry x="664" y="265" width="60" height="30" as="geometry" />
        </mxCell>
        <mxCell id="mQivXwnT2g9FrmGUxrGe-24" style="edgeStyle=orthogonalEdgeStyle;rounded=0;orthogonalLoop=1;jettySize=auto;html=1;entryX=0.5;entryY=1;entryDx=0;entryDy=0;exitX=1;exitY=0;exitDx=0;exitDy=0;curved=1;" parent="1" source="mQivXwnT2g9FrmGUxrGe-25" target="mQivXwnT2g9FrmGUxrGe-26" edge="1">
          <mxGeometry relative="1" as="geometry" />
        </mxCell>
        <mxCell id="mQivXwnT2g9FrmGUxrGe-25" value="" style="ellipse;html=1;shape=endState;fillColor=#dae8fc;strokeColor=#6c8ebf;" parent="1" vertex="1">
          <mxGeometry x="545" y="360" width="30" height="30" as="geometry" />
        </mxCell>
        <mxCell id="mQivXwnT2g9FrmGUxrGe-26" value="" style="ellipse;html=1;shape=endState;fillColor=#f8cecc;strokeColor=#b85450;" parent="1" vertex="1">
          <mxGeometry x="625" y="230" width="30" height="30" as="geometry" />
        </mxCell>
        <mxCell id="mQivXwnT2g9FrmGUxrGe-27" value="&lt;font style=&quot;font-size: 15px;&quot;&gt;&lt;b&gt;Internet&lt;/b&gt;&lt;/font&gt;" style="text;html=1;align=center;verticalAlign=middle;whiteSpace=wrap;rounded=0;" parent="1" vertex="1">
          <mxGeometry x="559.5" y="130" width="60" height="30" as="geometry" />
        </mxCell>
        <mxCell id="mQivXwnT2g9FrmGUxrGe-28" value="&lt;font style=&quot;font-size: 15px;&quot;&gt;Node&lt;/font&gt;" style="text;html=1;align=center;verticalAlign=middle;resizable=0;points=[];autosize=1;strokeColor=none;fillColor=none;" parent="1" vertex="1">
          <mxGeometry x="490" y="360" width="60" height="30" as="geometry" />
        </mxCell>
        <mxCell id="mQivXwnT2g9FrmGUxrGe-29" value="&lt;font style=&quot;font-size: 15px;&quot;&gt;Authority Node&lt;/font&gt;" style="text;html=1;align=center;verticalAlign=middle;resizable=0;points=[];autosize=1;strokeColor=none;fillColor=none;" parent="1" vertex="1">
          <mxGeometry x="510" y="220" width="120" height="30" as="geometry" />
        </mxCell>
        <mxCell id="mQivXwnT2g9FrmGUxrGe-30" value="" style="endArrow=none;html=1;rounded=0;exitX=0;exitY=1;exitDx=0;exitDy=0;" parent="1" source="mQivXwnT2g9FrmGUxrGe-16" edge="1">
          <mxGeometry width="50" height="50" relative="1" as="geometry">
            <mxPoint x="640" y="415" as="sourcePoint" />
            <mxPoint x="675" y="350" as="targetPoint" />
          </mxGeometry>
        </mxCell>
        <mxCell id="mQivXwnT2g9FrmGUxrGe-31" value="" style="endArrow=none;html=1;rounded=0;exitX=0.371;exitY=0.986;exitDx=0;exitDy=0;exitPerimeter=0;" parent="1" source="mQivXwnT2g9FrmGUxrGe-16" edge="1">
          <mxGeometry width="50" height="50" relative="1" as="geometry">
            <mxPoint x="840" y="576" as="sourcePoint" />
            <mxPoint x="675" y="350" as="targetPoint" />
          </mxGeometry>
        </mxCell>
        <mxCell id="mQivXwnT2g9FrmGUxrGe-32" value="" style="endArrow=none;html=1;rounded=0;exitX=0.089;exitY=0.218;exitDx=0;exitDy=0;exitPerimeter=0;" parent="1" source="mQivXwnT2g9FrmGUxrGe-16" edge="1">
          <mxGeometry width="50" height="50" relative="1" as="geometry">
            <mxPoint x="650" y="446" as="sourcePoint" />
            <mxPoint x="675" y="350" as="targetPoint" />
          </mxGeometry>
        </mxCell>
        <mxCell id="mQivXwnT2g9FrmGUxrGe-33" value="" style="endArrow=none;html=1;rounded=0;entryX=1.009;entryY=0.452;entryDx=0;entryDy=0;entryPerimeter=0;" parent="1" target="mQivXwnT2g9FrmGUxrGe-16" edge="1">
          <mxGeometry width="50" height="50" relative="1" as="geometry">
            <mxPoint x="675" y="350" as="sourcePoint" />
            <mxPoint x="755" y="420" as="targetPoint" />
          </mxGeometry>
        </mxCell>
        <mxCell id="mQivXwnT2g9FrmGUxrGe-34" value="" style="shape=image;verticalLabelPosition=bottom;labelBackgroundColor=default;verticalAlign=top;aspect=fixed;imageAspect=0;image=data:image/png,iVBORw0KGgoAAAANSUhEUgAAAFYAAAASCAYAAADBnymNAAAAAXNSR0IArs4c6QAAAIRlWElmTU0AKgAAAAgABQESAAMAAAABAAEAAAEaAAUAAAABAAAASgEbAAUAAAABAAAAUgEoAAMAAAABAAIAAIdpAAQAAAABAAAAWgAAAAAAAABIAAAAAQAAAEgAAAABAAOgAQADAAAAAQABAACgAgAEAAAAAQAAAFagAwAEAAAAAQAAABIAAAAAR92dbQAAAAlwSFlzAAALEwAACxMBAJqcGAAAA0JJREFUWAntll1Ik2EUx/e9Ppa6jVRyKUZF0QeB3qSLgi5GIXQldBF0JWFQtEQDI7CLLhOvI4q6CqGoi8iKWnUXaVmxoEUtGk2ZurlJ0D7c+p3lC1PGu2mDEN4Hzs5zznPO/znP//l4p9NpTWNAY0BjQGNAY2CVMaAvVW8kEqm3WCwnDQaDfX5+/rHdbvdNT083mM3mU+TmkM/4HzocjvhSrGg02m40Gj2KX/JNJlNbIBAYam1tTSv+cnQikehdSZ6CHY/HzzD/7WJ1KjGV1AY1sKmpqU1Wq/WlXq9vzOVymyF3cHZ2thu9Bd8xcr8iHZD3IhQKrQ0Gg2t8Pp9J+oJL3AR5H4jtFZ3NZqO4szI2MDBgEHy/328Rmw20SS6+DYotWsZHR0fNdMvKkxyZPxaLNbEZPWJLo4Zuaqj6a+l0yjzDw8NGpQZlrBJa9cSyy5cpJgVBJ9CPmDBHgZ5MJtMNmf3V1dVHpAjiXkNaHz4vZhuxZxm7I2PSGJ/DzhPGYn+OjIw0ejweP0MhZHsqldrNBn6jLxshiz/FPH30r9M/h75EDTfLySO+TnLRu8gbZN48ucz7KZ1Oe5xOp8ypw56sqqqq56B0Er+fuPPir1QzlQDayPgPCnzLNRqigBbIO7w0B38YqSPOgByvqal5vjSm0Ha73Vbsd8SOQ9geMJuxU2zYAexO5BAb1YWWG+Fj0U8gQldOHpgN5FwlfydabkipJrdW9eaWAig2rgpIkc8grB1Zz+IfIEfxTRQC8d7uwHYjb8RP7JxoTulW0cWazWbbh19wP4L3C52/Obx/Cbq/IcWIv3Eh1yHPhvTLyZN8Qm+gmzihtxYwiip5AohzFh38R6cqsZy8u+CPIduQJItt5lR1yZwUdBDyvvNhu4e/h9ig+KWFw+F1qPczMzOuvKPgh1jBiZBvxH0FcUJkRvwFYfI+X8Pfgt/v9XpPl5tHXH5DwN/LB1aeJqVl+HC+ouYvXP9+nPddLleAuIv0VZ9EBaDiWk7MwgdkOdiqxcpHQ2Q5gBJbKg/ixiDuAk9HLzKuhr+CNanBLRpTXfyiyFViQKr8Y+mg3FgymXxaW1s7uUpK18rUGNAY0BjQGNAY+L8M/AHofspo2U1DlAAAAABJRU5ErkJggg==;" parent="1" vertex="1">
          <mxGeometry x="664" y="320" width="86" height="18" as="geometry" />
        </mxCell>
        <mxCell id="mQivXwnT2g9FrmGUxrGe-35" value="" style="shape=image;verticalLabelPosition=bottom;labelBackgroundColor=default;verticalAlign=top;aspect=fixed;imageAspect=0;image=data:image/png,iVBORw0KGgoAAAANSUhEUgAAAFYAAAASCAYAAADBnymNAAAAAXNSR0IArs4c6QAAAIRlWElmTU0AKgAAAAgABQESAAMAAAABAAEAAAEaAAUAAAABAAAASgEbAAUAAAABAAAAUgEoAAMAAAABAAIAAIdpAAQAAAABAAAAWgAAAAAAAABIAAAAAQAAAEgAAAABAAOgAQADAAAAAQABAACgAgAEAAAAAQAAAFagAwAEAAAAAQAAABIAAAAAR92dbQAAAAlwSFlzAAALEwAACxMBAJqcGAAAA0JJREFUWAntll1Ik2EUx/e9Ppa6jVRyKUZF0QeB3qSLgi5GIXQldBF0JWFQtEQDI7CLLhOvI4q6CqGoi8iKWnUXaVmxoEUtGk2ZurlJ0D7c+p3lC1PGu2mDEN4Hzs5zznPO/znP//l4p9NpTWNAY0BjQGNAY2CVMaAvVW8kEqm3WCwnDQaDfX5+/rHdbvdNT083mM3mU+TmkM/4HzocjvhSrGg02m40Gj2KX/JNJlNbIBAYam1tTSv+cnQikehdSZ6CHY/HzzD/7WJ1KjGV1AY1sKmpqU1Wq/WlXq9vzOVymyF3cHZ2thu9Bd8xcr8iHZD3IhQKrQ0Gg2t8Pp9J+oJL3AR5H4jtFZ3NZqO4szI2MDBgEHy/328Rmw20SS6+DYotWsZHR0fNdMvKkxyZPxaLNbEZPWJLo4Zuaqj6a+l0yjzDw8NGpQZlrBJa9cSyy5cpJgVBJ9CPmDBHgZ5MJtMNmf3V1dVHpAjiXkNaHz4vZhuxZxm7I2PSGJ/DzhPGYn+OjIw0ejweP0MhZHsqldrNBn6jLxshiz/FPH30r9M/h75EDTfLySO+TnLRu8gbZN48ucz7KZ1Oe5xOp8ypw56sqqqq56B0Er+fuPPir1QzlQDayPgPCnzLNRqigBbIO7w0B38YqSPOgByvqal5vjSm0Ha73Vbsd8SOQ9geMJuxU2zYAexO5BAb1YWWG+Fj0U8gQldOHpgN5FwlfydabkipJrdW9eaWAig2rgpIkc8grB1Zz+IfIEfxTRQC8d7uwHYjb8RP7JxoTulW0cWazWbbh19wP4L3C52/Obx/Cbq/IcWIv3Eh1yHPhvTLyZN8Qm+gmzihtxYwiip5AohzFh38R6cqsZy8u+CPIduQJItt5lR1yZwUdBDyvvNhu4e/h9ig+KWFw+F1qPczMzOuvKPgh1jBiZBvxH0FcUJkRvwFYfI+X8Pfgt/v9XpPl5tHXH5DwN/LB1aeJqVl+HC+ouYvXP9+nPddLleAuIv0VZ9EBaDiWk7MwgdkOdiqxcpHQ2Q5gBJbKg/ixiDuAk9HLzKuhr+CNanBLRpTXfyiyFViQKr8Y+mg3FgymXxaW1s7uUpK18rUGNAY0BjQGNAY+L8M/AHofspo2U1DlAAAAABJRU5ErkJggg==;" parent="1" vertex="1">
          <mxGeometry x="440" y="502" width="86" height="18" as="geometry" />
        </mxCell>
      </root>
    </mxGraphModel>
  </diagram>
</mxfile>
